<svg width="28" height="27" fill="none" xmlns="http://www.w3.org/2000/svg"><path d="M22.785 6.29c0 .9-.733 1.62-1.627 1.62a1.63 1.63 0 01-1.627-1.62c0-.9.734-1.62 1.628-1.62.893 0 1.627.73 1.627 1.62zM13.917 18c2.5.04 4.55-1.95 4.59-4.43.04-2.48-1.959-4.53-4.46-4.57h-.13c-2.5 0-4.52 2.01-4.52 4.5s2.02 4.5 4.52 4.5zm0-11.43c3.847-.05 7 3.02 7.05 6.85.05 3.83-3.032 6.97-6.88 7.02h-.17c-3.847-.05-6.93-3.19-6.88-7.02a6.948 6.948 0 016.88-6.85zm0-4.14c-3.616 0-4.048.01-5.474.08-1.326.06-2.049.28-2.52.46a4.27 4.27 0 00-1.558 1.01 4.12 4.12 0 00-1.014 1.56c-.18.48-.402 1.19-.462 2.51-.07 1.42-.09 1.84-.09 5.45 0 3.6.01 4.03.08 5.45.06 1.32.281 2.03.462 2.51.251.63.542 1.08 1.014 1.55s.924.76 1.557 1.01c.482.18 1.195.4 2.521.47 1.426.07 1.858.08 5.474.08s4.047-.01 5.484-.08c1.326-.06 2.039-.28 2.52-.47a4.146 4.146 0 001.557-1.01c.453-.44.794-.97 1.015-1.55.18-.48.412-1.19.472-2.51.07-1.42.08-1.85.08-5.45s-.01-4.03-.08-5.46c-.06-1.32-.281-2.03-.472-2.51a4.123 4.123 0 00-1.015-1.55 4.31 4.31 0 00-1.556-1.01c-.482-.18-1.195-.4-2.521-.46-1.426-.06-1.848-.08-5.474-.08zm0-2.43c3.686 0 4.148.01 5.594.08 1.447.07 2.43.29 3.295.63.904.34 1.727.87 2.4 1.56a6.56 6.56 0 011.567 2.39c.331.86.562 1.84.633 3.28.06 1.43.07 1.89.07 5.56s-.01 4.13-.08 5.57c-.07 1.44-.302 2.42-.633 3.28-.342.9-.874 1.72-1.567 2.39a6.593 6.593 0 01-2.4 1.56c-.864.33-1.848.56-3.295.63-1.436.05-1.898.07-5.584.07s-4.148-.02-5.594-.08c-1.447-.07-2.43-.29-3.295-.63a6.593 6.593 0 01-2.4-1.56 6.56 6.56 0 01-1.567-2.39C.73 21.48.5 20.5.428 19.06c-.05-1.43-.07-1.89-.07-5.56s.02-4.13.08-5.57c.07-1.43.302-2.42.633-3.27a6.56 6.56 0 011.567-2.39 6.593 6.593 0 012.4-1.56C5.902.37 6.886.15 8.323.08 9.769.01 10.24 0 13.917 0z" fill="#29ABE2"/></svg>