<svg width="18" height="30" fill="none" xmlns="http://www.w3.org/2000/svg"><path fill-rule="evenodd" clip-rule="evenodd" d="M8.934 15.12c4.149 0 7.523-3.36 7.523-7.49 0-4.14-3.375-7.49-7.523-7.5-4.158 0-7.522 3.36-7.532 7.49.01 4.14 3.374 7.49 7.532 7.5zm0-10.6a3.11 3.11 0 013.114 3.1 3.11 3.11 0 01-3.114 3.1 3.11 3.11 0 01-3.113-3.1 3.11 3.11 0 013.114-3.1zm3.044 16.71c1.546-.35 3.023-.96 4.369-1.8 1.034-.65 1.335-2 .693-3.03a2.195 2.195 0 00-3.033-.69 9.593 9.593 0 01-10.135 0 2.207 2.207 0 00-3.023.78c-.592 1-.301 2.3.673 2.94 1.346.84 2.823 1.45 4.37 1.8l-4.209 4.19a2.187 2.187 0 00-.01 3.1c.412.41.974.65 1.567.65.562 0 1.125-.22 1.556-.64l4.138-4.12 4.139 4.12a2.2 2.2 0 003.113 0c.864-.86.864-2.24 0-3.1l-4.208-4.2z" fill="#29ABE2"/></svg>