<svg width="32" height="19" fill="none" xmlns="http://www.w3.org/2000/svg"><path d="M31.358 16.55c-.543-.98-1.577-2.19-3.094-3.63l-.05-.05c-.723-.68-1.165-1.13-1.346-1.36-.331-.44-.412-.88-.23-1.33.13-.34.612-1.06 1.455-2.15.442-.58.794-1.05 1.055-1.4 1.868-2.52 2.682-4.13 2.43-4.83l-.1-.16c-.06-.1-.23-.19-.502-.27-.271-.08-.613-.1-1.034-.04l-4.67.03c-.081-.03-.182-.03-.322.01l-.211.05-.08.04-.06.04a.737.737 0 00-.182.17c-.07.09-.12.18-.16.29a26.97 26.97 0 01-1.738 3.7c-.351.6-.713 1.19-1.105 1.77-.331.5-.612.86-.843 1.1-.231.24-.432.43-.613.57-.18.14-.321.2-.422.18a2.77 2.77 0 01-.271-.07c-.15-.1-.281-.24-.361-.4a2.03 2.03 0 01-.191-.64 7.25 7.25 0 01-.06-.67c-.01-.19 0-.45.01-.79s.02-.57.02-.69c0-.42.01-.87.02-1.35l.04-1.16c.01-.28.02-.59.02-.9 0-.32-.02-.57-.06-.75-.03-.19-.09-.36-.161-.53a.84.84 0 00-.332-.39c-.17-.1-.351-.18-.542-.22-.572-.13-1.306-.2-2.19-.21-2.008-.02-3.304.11-3.876.39-.231.13-.442.29-.613.49-.19.24-.22.37-.08.39.643.1 1.104.33 1.376.71l.1.2c.07.14.15.39.231.76.07.36.12.76.15 1.2.051.8.051 1.48 0 2.05-.05.57-.11 1.01-.15 1.33-.03.27-.11.53-.22.77-.061.12-.121.25-.192.36-.02.03-.05.06-.08.08-.14.05-.291.08-.442.08-.15 0-.331-.08-.552-.23-.251-.18-.472-.4-.673-.63a8.099 8.099 0 01-.784-1.13c-.331-.55-.632-1.12-.904-1.71l-.26-.48a32.06 32.06 0 01-.664-1.34c-.27-.56-.522-1.12-.743-1.7-.07-.21-.21-.39-.392-.53l-.08-.05c-.08-.06-.17-.1-.261-.14a1.59 1.59 0 00-.372-.11l-4.439.03c-.452 0-.763.1-.924.31l-.06.1c-.04.08-.06.17-.05.26 0 .12.03.27.1.44a53.426 53.426 0 002.12 4.47c.763 1.44 1.425 2.59 1.988 3.47.562.88 1.135 1.7 1.717 2.48.583.78.975 1.28 1.155 1.5.191.22.342.38.442.49l.402.39c.261.26.643.58 1.145.94.502.37 1.055.73 1.667 1.08.613.35 1.316.65 2.13.87.773.22 1.566.31 2.37.27h1.868c.382-.03.663-.15.864-.36l.06-.08a1.536 1.536 0 00.18-.75c-.01-.47.02-.9.101-1.27.08-.38.17-.66.281-.85.151-.29.362-.53.623-.72.04-.02.09-.04.13-.06.262-.09.563 0 .915.26.351.26.683.57.994.95.311.38.683.8 1.115 1.27.432.47.813.82 1.135 1.05l.321.2c.261.15.552.27.844.36.341.11.653.14.904.08l4.148-.07c.412 0 .733-.07.954-.21.23-.14.361-.29.402-.45.04-.16.05-.35.01-.56-.02-.15-.06-.29-.11-.43-.061-.05-.101-.12-.141-.18z" fill="#29ABE2"/></svg>